<svg width="500" height="150" viewBox="0 0 500 150" fill="none" xmlns="http://www.w3.org/2000/svg">
<path d="M91.83 107.12H131.56L145.35 83.2299C146.5 81.2399 149.03 80.5599 151.02 81.7099C153.01 82.8599 153.69 85.3899 152.54 87.3799L141.15 107.12H180.92L148.05 50.2399C148.05 50.2399 144.94 42.8799 135.69 42.8799C126.44 42.8799 123.99 49.0099 122.2 52.5999C120.41 56.1799 110.46 72.3099 110.46 72.3099L97.02 48.7299C97.02 48.7299 93.72 42.7899 84.85 42.9799C75.98 43.1699 73.34 50.0499 72.49 51.5599C71.64 53.0699 39.99 107.12 39.99 107.12H82.25L96.04 83.2299C97.19 81.2399 99.72 80.5599 101.71 81.7099C103.7 82.8599 104.38 85.3899 103.23 87.3799L91.84 107.12H91.83Z" fill="white"/>
<path d="M212.44 93.55V68.53H216.23L225.35 83.36L223.53 83.32L232.75 68.52H236.33V93.54H232.47V83.28C232.47 81.14 232.52 79.2 232.63 77.49C232.74 75.78 232.92 74.07 233.18 72.38L233.68 73.7L225.49 86.35H223.13L215.19 73.84L215.58 72.38C215.84 73.98 216.03 75.61 216.13 77.3C216.24 78.98 216.29 80.98 216.29 83.29V93.55H212.43H212.44Z" fill="white"/>
<path d="M253.04 93.7602C251.11 93.7602 249.38 93.3402 247.86 92.4902C246.33 91.6402 245.14 90.4802 244.27 88.9902C243.4 87.5002 242.97 85.8102 242.97 83.9302V68.4902H246.83V83.6102C246.83 84.8202 247.12 85.9202 247.69 86.8802C248.26 87.8402 249.02 88.6102 249.96 89.1902C250.9 89.7602 251.93 90.0502 253.05 90.0502C254.24 90.0502 255.32 89.7602 256.29 89.1902C257.25 88.6202 258.02 87.8502 258.6 86.8802C259.18 85.9102 259.46 84.8202 259.46 83.6102V68.4902H263.14V83.9302C263.14 85.8102 262.7 87.5002 261.84 88.9902C260.97 90.4802 259.77 91.6502 258.25 92.4902C256.72 93.3402 255 93.7602 253.07 93.7602H253.04Z" fill="white"/>
<path d="M277.14 93.9001C275.78 93.9001 274.52 93.7201 273.37 93.3601C272.22 93.0001 271.17 92.4601 270.22 91.7301C269.28 91.0001 268.44 90.1001 267.7 89.0301L270.35 85.9901C271.52 87.6601 272.64 88.8101 273.71 89.4601C274.78 90.1101 276.06 90.4201 277.54 90.4201C278.45 90.4201 279.27 90.2801 280.01 89.9901C280.75 89.7001 281.33 89.3101 281.76 88.8101C282.19 88.3101 282.4 87.7401 282.4 87.0901C282.4 86.6601 282.33 86.2601 282.19 85.8701C282.05 85.4901 281.83 85.1401 281.53 84.8301C281.23 84.5201 280.85 84.2301 280.39 83.9701C279.93 83.7101 279.38 83.4801 278.76 83.2701C278.14 83.0701 277.43 82.8901 276.62 82.7501C275.33 82.4901 274.21 82.1401 273.26 81.7101C272.31 81.2801 271.51 80.7501 270.87 80.1001C270.23 79.4601 269.75 78.7201 269.44 77.9001C269.13 77.0801 268.98 76.1501 268.98 75.1301C268.98 74.1101 269.2 73.2001 269.64 72.3401C270.08 71.4801 270.69 70.7401 271.46 70.1101C272.23 69.4801 273.15 68.9901 274.19 68.6401C275.24 68.2901 276.37 68.1201 277.59 68.1201C278.88 68.1201 280.06 68.2901 281.13 68.6201C282.2 68.9501 283.16 69.4501 283.99 70.1001C284.82 70.7601 285.51 71.5601 286.06 72.5101L283.34 75.1901C282.86 74.4001 282.33 73.7401 281.73 73.2101C281.13 72.6701 280.48 72.2701 279.76 72.0001C279.05 71.7301 278.28 71.5901 277.47 71.5901C276.54 71.5901 275.73 71.7301 275.04 72.0201C274.35 72.3101 273.81 72.7101 273.41 73.2201C273.02 73.7301 272.82 74.3301 272.82 75.0301C272.82 75.5301 272.91 75.9901 273.11 76.4101C273.3 76.8301 273.59 77.2001 273.99 77.5201C274.38 77.8401 274.91 78.1301 275.58 78.3801C276.25 78.6301 277.05 78.8501 277.98 79.0401C279.29 79.3301 280.46 79.6901 281.48 80.1301C282.5 80.5701 283.37 81.0901 284.09 81.6901C284.8 82.2901 285.35 82.9501 285.72 83.6901C286.09 84.4301 286.27 85.2301 286.27 86.0901C286.27 87.6901 285.9 89.0701 285.16 90.2401C284.42 91.4101 283.37 92.3101 282.01 92.9401C280.65 93.5701 279.03 93.8901 277.15 93.8901L277.14 93.9001Z" fill="white"/>
<path d="M290.79 93.55V89.97H294.83V72.1H290.79V68.52H302.73V72.1H298.69V89.97H302.73V93.55H290.79Z" fill="white"/>
<path d="M308.81 93.55V68.53H312.67V93.55H308.81ZM312.03 85.97L311.82 81.64L324.94 68.52H330.02L312.04 85.97H312.03ZM325.4 93.55L315.82 80.75L318.68 78.28L330.23 93.54H325.4V93.55Z" fill="white"/>
<path d="M332.37 93.5503L342.06 68.5303H345.99L355.61 93.5503H351.5L345.78 78.4603C345.71 78.2903 345.57 77.8903 345.37 77.2503C345.17 76.6103 344.94 75.8903 344.67 75.1103C344.41 74.3203 344.17 73.6003 343.96 72.9503C343.75 72.2903 343.6 71.8703 343.53 71.6803L344.35 71.6403C344.21 72.0503 344.03 72.5603 343.83 73.1803C343.63 73.8003 343.41 74.4603 343.19 75.1503C342.96 75.8403 342.74 76.4903 342.53 77.1003C342.32 77.7103 342.14 78.2103 341.99 78.6203L336.31 93.5603H332.38L332.37 93.5503ZM336.66 87.3303L338.09 83.6103H349.46L351.1 87.3303H336.66Z" fill="white"/>
<path d="M370.01 93.5503V68.5303H373.87V89.8403H385.59V93.5603H370L370.01 93.5503Z" fill="white"/>
<path d="M388.81 93.5503L398.5 68.5303H402.43L412.05 93.5503H407.94L402.22 78.4603C402.15 78.2903 402.01 77.8903 401.81 77.2503C401.61 76.6103 401.38 75.8903 401.11 75.1103C400.85 74.3203 400.61 73.6003 400.4 72.9503C400.19 72.2903 400.04 71.8703 399.97 71.6803L400.79 71.6403C400.65 72.0503 400.47 72.5603 400.27 73.1803C400.07 73.8003 399.85 74.4603 399.63 75.1503C399.4 75.8403 399.18 76.4903 398.97 77.1003C398.76 77.7103 398.58 78.2103 398.43 78.6203L392.75 93.5603H388.82L388.81 93.5503ZM393.1 87.3303L394.53 83.6103H405.9L407.54 87.3303H393.1Z" fill="white"/>
<path d="M416.45 93.5503V68.5303H426.89C428.49 68.5303 429.83 68.7703 430.93 69.2403C432.03 69.7203 432.85 70.4303 433.41 71.3703C433.97 72.3103 434.25 73.4603 434.25 74.8203C434.25 76.1803 433.87 77.3303 433.12 78.2903C432.37 79.2403 431.33 79.9003 429.99 80.2603V79.5503C431.11 79.7903 432.09 80.2103 432.92 80.8203C433.75 81.4303 434.4 82.1803 434.87 83.0903C435.33 84.0003 435.57 85.0303 435.57 86.2003C435.57 87.3703 435.39 88.4503 435.02 89.3603C434.65 90.2803 434.1 91.0503 433.38 91.6703C432.65 92.2903 431.78 92.7603 430.75 93.0803C429.72 93.4003 428.56 93.5603 427.25 93.5603H416.45V93.5503ZM420.31 78.8903H426.67C427.38 78.8903 428.02 78.7503 428.58 78.4603C429.14 78.1703 429.58 77.7803 429.9 77.2803C430.22 76.7803 430.38 76.2103 430.38 75.5603C430.38 74.4903 430.02 73.6703 429.31 73.0903C428.6 72.5203 427.57 72.2303 426.24 72.2303H420.31V78.8803V78.8903ZM420.31 89.8303H427.03C428.01 89.8303 428.83 89.6903 429.51 89.4003C430.19 89.1103 430.71 88.6903 431.08 88.1303C431.45 87.5703 431.63 86.9003 431.63 86.1103C431.63 85.3703 431.43 84.7403 431.04 84.2203C430.65 83.7003 430.09 83.3003 429.38 83.0203C428.66 82.7503 427.82 82.6103 426.84 82.6103H420.3V89.8303H420.31Z" fill="white"/>
<path d="M448.51 93.9001C447.15 93.9001 445.89 93.7201 444.74 93.3601C443.59 93.0001 442.54 92.4601 441.59 91.7301C440.65 91.0001 439.81 90.1001 439.07 89.0301L441.72 85.9901C442.89 87.6601 444.01 88.8101 445.08 89.4601C446.15 90.1101 447.43 90.4201 448.91 90.4201C449.82 90.4201 450.64 90.2801 451.38 89.9901C452.12 89.7001 452.7 89.3101 453.13 88.8101C453.56 88.3101 453.77 87.7401 453.77 87.0901C453.77 86.6601 453.7 86.2601 453.56 85.8701C453.42 85.4901 453.2 85.1401 452.9 84.8301C452.6 84.5201 452.22 84.2301 451.76 83.9701C451.3 83.7101 450.75 83.4801 450.13 83.2701C449.51 83.0701 448.8 82.8901 447.99 82.7501C446.7 82.4901 445.58 82.1401 444.63 81.7101C443.68 81.2801 442.88 80.7501 442.24 80.1001C441.6 79.4601 441.12 78.7201 440.81 77.9001C440.5 77.0801 440.35 76.1501 440.35 75.1301C440.35 74.1101 440.57 73.2001 441.01 72.3401C441.45 71.4801 442.06 70.7401 442.83 70.1101C443.6 69.4801 444.52 68.9901 445.56 68.6401C446.61 68.2901 447.74 68.1201 448.96 68.1201C450.25 68.1201 451.43 68.2901 452.5 68.6201C453.57 68.9501 454.53 69.4501 455.36 70.1001C456.19 70.7601 456.88 71.5601 457.43 72.5101L454.71 75.1901C454.23 74.4001 453.7 73.7401 453.1 73.2101C452.5 72.6701 451.85 72.2701 451.13 72.0001C450.42 71.7301 449.65 71.5901 448.84 71.5901C447.91 71.5901 447.1 71.7301 446.41 72.0201C445.72 72.3101 445.18 72.7101 444.78 73.2201C444.39 73.7301 444.19 74.3301 444.19 75.0301C444.19 75.5301 444.28 75.9901 444.48 76.4101C444.67 76.8301 444.96 77.2001 445.36 77.5201C445.75 77.8401 446.28 78.1301 446.95 78.3801C447.62 78.6301 448.42 78.8501 449.35 79.0401C450.66 79.3301 451.83 79.6901 452.85 80.1301C453.87 80.5701 454.74 81.0901 455.46 81.6901C456.17 82.2901 456.72 82.9501 457.09 83.6901C457.46 84.4301 457.64 85.2301 457.64 86.0901C457.64 87.6901 457.27 89.0701 456.53 90.2401C455.79 91.4101 454.74 92.3101 453.38 92.9401C452.02 93.5701 450.4 93.8901 448.52 93.8901L448.51 93.9001Z" fill="white"/>
</svg>
